<svg viewBox="0 0 48 48" fill="none" xmlns="http://www.w3.org/2000/svg">
	<path
		d="M12.368 33L18.356 20.81L31.268 12.668L37 1L43.282 4.086L37.552 15.754L39 30.95L37.992 33H12.368Z"
		fill="white"
	/>
	<path
		d="M47 37L42 40L38 37L34 40L30 37L26 40L22 37L18 40L14 37L10 40L6 37L1 40V47L6 44L10 47L14 44L18 47L22 44L26 47L30 44L34 47L38 44L42 47L47 44V37ZM19.052 33L24.182 22.558L34.48 24.274L30.194 33H19.052ZM34.354 6.386L37 1.002L43.284 4.088L40.638 9.474L34.354 6.386Z"
		fill="#5CEDC2"
	/>
	<path
		d="M1 47L6 44L10 47L14 44L18 47L22 44L26 47L30 44L34 47L38 44L42 47L47 44M1 40L6 37L10 40L14 37L18 40L22 37L26 40L30 37L34 40L38 37L42 40L47 37M40.638 9.472L34.354 6.386M12.368 33L18.356 20.81L31.268 12.668L37 1L43.282 4.086L37.552 15.754L39 30.95L37.992 33"
		stroke="#003057"
		stroke-width="2"
		stroke-linecap="round"
		stroke-linejoin="round"
	/>
	<path
		d="M29.332 23.416L24.624 33M19.052 33L24.182 22.558L34.48 24.274L30.194 33H19.052Z"
		stroke="#003057"
		stroke-width="2"
		stroke-linecap="round"
		stroke-linejoin="round"
	/>
</svg>